<?xml version="1.0"?>
<svg version="1.1" xmlns="http://www.w3.org/2000/svg" xmlns:xlink="http://www.w3.org/1999/xlink" width="320" height="635">
    <desc iVinci="yes" version="4.6" gridStep="20" showGrid="no" snapToGrid="no" codePlatform="0"/>
    <g id="Layer1" name="Layer 1" opacity="1">
        <g id="Shape1">
            <desc shapeID="1" type="0" basicInfo-basicType="0" basicInfo-roundedRectRadius="12" basicInfo-polygonSides="6" basicInfo-starPoints="5" bounding="rect(-117.086,-158.098,234.171,316.195)" text="" font-familyName="" font-pixelSize="20" font-bold="0" font-underline="0" font-alignment="1" strokeStyle="0" markerStart="0" markerEnd="0" shadowEnabled="0" shadowOffsetX="0" shadowOffsetY="2" shadowBlur="4" shadowOpacity="160" blurEnabled="0" blurRadius="4" transform="matrix(1,0,0,1,139.876,191.892)" pers-center="0,0" pers-size="0,0" pers-start="0,0" pers-end="0,0" locked="0" mesh="" flag=""/>
            <path id="shapePath1" d="M22.79,35.21 C24.12,34.81 25.44,34.26 26.83,34.09 C38.69,33.54 50.78,33.44 62.3,36.7 C69.84,38.83 76.6,44.17 79.69,51.46 C83.61,60.81 84.97,70.97 85.83,81 C85.86,82.63 85.86,84.27 85.8,85.91 C82.12,121.21 67.06,154.42 64.98,189.98 C64.4,199.6 68.27,208.8 73.22,216.83 C77.14,222.94 84.58,225.96 91.63,226.21 C90.12,217.52 87.99,208.87 87.92,200.01 C87.8,189.64 87.45,179.19 89.16,168.92 C91.75,152.14 97.65,136.06 104.72,120.69 C110.3,108.53 117.27,97.06 124.88,86.08 C126.18,84.35 127.55,82.67 128.93,81 C138.07,69.92 150.59,60.86 165.06,58.71 C174.47,56.87 185.35,59.95 191.16,67.9 C193.92,71.81 195.78,76.33 196.77,81 C197.04,82.74 197.26,84.49 197.42,86.24 C196.82,114.05 185.38,140.21 172.48,164.37 C164.42,179.33 154.67,193.54 142.34,205.31 C131.9,216.21 118.96,224.54 104.88,229.93 C105.62,232.37 106.35,234.8 107.09,237.24 C116.44,228.39 126.07,219.57 137.52,213.48 C146.08,208.77 155.08,204 165.02,203.33 C170.04,202.97 174.81,205.08 178.8,207.97 C179.34,192.66 182.56,177.58 186.75,162.89 C193.84,137.73 207.05,114.08 225.79,95.76 C230.57,91.43 236.06,86.59 242.89,86.57 C249.8,86.7 254.49,93.63 255.11,99.98 C255.24,100.17 255.51,100.55 255.64,100.74 C256.43,105.7 256.99,110.72 256.96,115.75 C254.18,144.26 242.59,171.31 227.46,195.39 C218.35,210.04 206.92,223.02 195,235.4 C196.12,238.82 198.3,241.78 200.14,244.84 C203.53,249.94 207.04,255.35 212.4,258.59 C218.39,261.75 225.8,260.54 231.59,257.5 C237.38,254.74 241.89,249.81 248.05,247.77 C245.37,251.87 241.25,254.63 237.55,257.73 C230.26,263.97 219.83,266.66 210.61,263.52 C200.16,259.8 192.95,250.67 186.95,241.77 C180.48,246.12 173.82,250.95 165.97,252.27 C161.67,253.27 156.57,249.71 157.13,245.07 C157.98,233.39 160.41,221.08 168.19,211.9 C165.41,212.82 162.61,213.69 160,215.01 C148.89,220.57 137.84,226.43 127.96,234.04 C121.84,238.68 116.1,243.81 110.62,249.19 C116.81,272.68 123.68,296.43 123.49,320.94 C123.25,327.5 122.97,334.27 120.17,340.32 C118.48,344.13 115.47,347.1 112.57,349.99 C111.9,349.71 111.24,349.42 110.59,349.12 C108.85,348.08 107.1,347.05 105.34,346.07 C107.95,343.07 110.95,340.06 111.82,336.04 C112.71,330.39 112.18,324.66 111.94,318.99 C110.17,298.73 106,278.77 100.64,259.18 C86.74,274.23 75.85,292.16 70.02,311.87 C68.91,310.57 67.82,309.28 66.73,307.98 C65.94,307 65.14,306.02 64.35,305.05 C64.44,304.54 64.62,303.53 64.7,303.03 C70.35,284.79 80.38,268.13 92.47,253.45 C94.06,251.42 95.95,249.59 97.2,247.3 C96.48,242.25 94.59,237.44 93.45,232.48 C85.21,232.41 76.85,229.77 70.56,224.34 C65.96,220.42 63.15,214.95 60.3,209.73 L60.22,209.42 C62.2,193.35 62.43,177.12 63.97,161 C64.35,157.22 64.24,153.42 64.16,149.63 C64.22,149.34 64.33,148.75 64.39,148.46 C65.67,144.77 66.93,141.07 67.81,137.27 C70.64,128.35 73.1,119.33 75.69,110.34 C77.87,102.54 79.79,94.59 80.24,86.47 C80.25,86.29 80.27,85.92 80.28,85.73 C80.38,84.15 80.45,82.58 80.5,81 C80.42,71.99 79.52,62.86 76.54,54.31 C74.04,47.32 68.08,42 61.09,39.71 C49.62,35.26 37.19,35.87 25.12,35.95 C25.05,36.62 24.91,37.96 24.84,38.63 C23.77,37.74 23.16,36.53 22.79,35.21 Z" style="stroke:none;fill-rule:nonzero;fill:#6b0c0c;fill-opacity:1;"/>
        </g>
        <g id="Shape2">
            <desc shapeID="2" type="0" basicInfo-basicType="0" basicInfo-roundedRectRadius="12" basicInfo-polygonSides="6" basicInfo-starPoints="5" bounding="rect(-25.15,-8.54933,50.3,17.0987)" text="" font-familyName="" font-pixelSize="20" font-bold="0" font-underline="0" font-alignment="1" strokeStyle="0" markerStart="0" markerEnd="0" shadowEnabled="0" shadowOffsetX="0" shadowOffsetY="2" shadowBlur="4" shadowOpacity="160" blurEnabled="0" blurRadius="4" transform="matrix(1,0,0,1,163.21,72.46)" pers-center="0,0" pers-size="0,0" pers-start="0,0" pers-end="0,0" locked="0" mesh="" flag=""/>
            <path id="shapePath2" d="M163.99,64.87 C170.35,62.97 177.73,63.8 182.89,68.19 C186.47,71.43 187.54,76.4 188.36,80.95 C171.59,81.05 154.83,81 138.06,80.97 C145.16,73.53 153.86,67.31 163.99,64.87 Z" style="stroke:none;fill-rule:nonzero;fill:#ffffff;fill-opacity:1;"/>
        </g>
        <g id="Shape3">
            <desc shapeID="3" type="0" basicInfo-basicType="0" basicInfo-roundedRectRadius="12" basicInfo-polygonSides="6" basicInfo-starPoints="5" bounding="rect(-109.122,-154.093,218.244,308.187)" text="" font-familyName="" font-pixelSize="20" font-bold="0" font-underline="0" font-alignment="1" strokeStyle="0" markerStart="0" markerEnd="0" shadowEnabled="0" shadowOffsetX="0" shadowOffsetY="2" shadowBlur="4" shadowOpacity="160" blurEnabled="0" blurRadius="4" transform="matrix(1,0,0,1,162.04,235.065)" pers-center="0,0" pers-size="0,0" pers-start="0,0" pers-end="0,0" locked="0" mesh="" flag=""/>
            <path id="shapePath3" d="M65.53,81.86 C70.4,80.51 75.51,81.14 80.5,81 C80.45,82.58 80.38,84.15 80.28,85.73 C77.1,85.76 73.92,85.77 70.74,85.78 C68.98,95.1 68.91,104.63 67.43,113.99 C66.51,125.49 65.25,136.96 64.39,148.46 C64.33,148.75 64.22,149.34 64.16,149.63 C60.36,163.46 57.17,177.64 56.9,192.04 C56.68,198.01 58.07,203.88 60.22,209.42 L60.3,209.73 C59.91,230.48 58.39,251.24 58.89,272.01 C58.91,282.61 61.5,292.99 64.7,303.03 C64.62,303.53 64.44,304.54 64.35,305.05 C65.14,306.02 65.94,307 66.73,307.98 C69.81,312.1 71.72,316.94 74.86,321.03 C84.03,333.29 96.57,343.01 110.59,349.12 C111.24,349.42 111.9,349.71 112.57,349.99 C146.49,363.08 185.78,362.48 218.75,346.84 C225.08,344.14 230.31,339.63 235.82,335.65 C242.15,331.07 246.63,324.57 251.49,318.58 C258.17,308.87 261.63,297.42 264.14,286.02 C264.41,283.65 264.63,281.28 265.2,278.97 C265.95,265.99 265.33,252.99 265.36,240.01 C265.47,232.98 264.32,226.01 264.42,218.98 C264.63,212.29 263.03,205.72 263.16,199.03 C261.25,173.76 259.91,148.43 257.32,123.21 C257.05,120.73 256.98,118.24 256.96,115.75 C256.99,110.72 256.43,105.7 255.64,100.74 C255.62,100.6 255.57,100.32 255.55,100.18 C254.65,95.6 254.37,90.94 254,86.3 C235.14,86.13 216.28,86.33 197.42,86.24 C197.26,84.49 197.04,82.74 196.77,81 C217.53,81 238.29,81 259.05,81 C260.99,96.72 262.23,112.52 263.95,128.26 C264.81,135.5 265.56,142.77 265.83,150.07 C266.9,153.3 266.6,156.73 266.84,160.07 C268.08,171.71 268.51,183.43 269.35,195.1 C269.949,203.419 269.8,211.75 270.57,220.05 C271.16,226 270.91,231.97 271.03,237.94 C271.05,254.3 271.4,270.68 270.87,287.04 C269.98,295.42 268.81,303.9 265.91,311.86 C261.59,325.37 256.17,338.91 247.09,350 C239.03,360.98 228.34,369.99 216.47,376.61 C210.92,379.8 204.81,381.76 198.98,384.33 C189.39,387.83 179.11,389.22 168.93,389.1 C153.92,389.16 138.22,389.9 124.13,383.85 C103.72,377.31 85.82,363.69 73.75,346.01 C70.9,341.31 68.15,336.54 65.62,331.66 C60.16,320.5 57.27,308.32 54.87,296.19 C51.83,279.68 53.28,262.74 53.16,246.04 C53.45,236.07 52.87,226.01 54.18,216.11 C54.56,200.75 56.29,185.47 57.15,170.12 C59.11,141.42 61.7,112.77 64.75,84.17 C64.82,83.33 65.08,82.56 65.53,81.86 Z" style="stroke:none;fill-rule:nonzero;fill:#030303;fill-opacity:1;"/>
        </g>
        <g id="Shape4">
            <desc shapeID="4" type="0" basicInfo-basicType="0" basicInfo-roundedRectRadius="12" basicInfo-polygonSides="6" basicInfo-starPoints="5" bounding="rect(-21.565,-2.54,43.13,5.08)" text="" font-familyName="" font-pixelSize="20" font-bold="0" font-underline="0" font-alignment="1" strokeStyle="0" markerStart="0" markerEnd="0" shadowEnabled="0" shadowOffsetX="0" shadowOffsetY="2" shadowBlur="4" shadowOpacity="160" blurEnabled="0" blurRadius="4" transform="matrix(1,0,0,1,107.365,83.54)" pers-center="0,0" pers-size="0,0" pers-start="0,0" pers-end="0,0" locked="0" mesh="" flag=""/>
            <path id="shapePath4" d="M85.83,81 C100.2,81.01 114.56,81 128.93,81 C127.55,82.67 126.18,84.35 124.88,86.08 C111.86,85.68 98.82,86 85.8,85.91 C85.86,84.27 85.86,82.63 85.83,81 Z" style="stroke:none;fill-rule:nonzero;fill:#030303;fill-opacity:1;"/>
        </g>
        <g id="Shape5">
            <desc shapeID="5" type="0" basicInfo-basicType="0" basicInfo-roundedRectRadius="12" basicInfo-polygonSides="6" basicInfo-starPoints="5" bounding="rect(-27.035,-2.505,54.07,5.01)" text="" font-familyName="" font-pixelSize="20" font-bold="0" font-underline="0" font-alignment="1" strokeStyle="0" markerStart="0" markerEnd="0" shadowEnabled="0" shadowOffsetX="0" shadowOffsetY="2" shadowBlur="4" shadowOpacity="160" blurEnabled="0" blurRadius="4" transform="matrix(1,0,0,1,161.325,83.455)" pers-center="0,0" pers-size="0,0" pers-start="0,0" pers-end="0,0" locked="0" mesh="" flag=""/>
            <path id="shapePath5" d="M138.06,80.97 C154.83,81 171.59,81.05 188.36,80.95 C188.33,82.6 188.33,84.26 188.31,85.91 C170.3,85.92 152.3,85.83 134.29,85.96 C135.53,84.28 136.79,82.62 138.06,80.97 Z" style="stroke:none;fill-rule:nonzero;fill:#030303;fill-opacity:1;"/>
        </g>
        <g id="Shape6">
            <desc shapeID="6" type="0" basicInfo-basicType="0" basicInfo-roundedRectRadius="12" basicInfo-polygonSides="6" basicInfo-starPoints="5" bounding="rect(-7.94501,-31.365,15.89,62.73)" text="" font-familyName="" font-pixelSize="20" font-bold="0" font-underline="0" font-alignment="1" strokeStyle="0" markerStart="0" markerEnd="0" shadowEnabled="0" shadowOffsetX="0" shadowOffsetY="2" shadowBlur="4" shadowOpacity="160" blurEnabled="0" blurRadius="4" transform="matrix(1,0,0,1,72.335,117.095)" pers-center="0,0" pers-size="0,0" pers-start="0,0" pers-end="0,0" locked="0" mesh="" flag=""/>
            <path id="shapePath6" d="M70.74,85.78 C73.92,85.77 77.1,85.76 80.28,85.73 C80.27,85.92 80.25,86.29 80.24,86.47 C77.21,86.44 74.2,86.43 71.18,86.4 C70.23,92.17 70.01,98.02 69.35,103.83 C68.54,115.37 66.83,126.84 66.53,138.42 L67.81,137.27 C66.93,141.07 65.67,144.77 64.39,148.46 C65.25,136.96 66.51,125.49 67.43,113.99 C68.91,104.63 68.98,95.1 70.74,85.78 Z" style="stroke:none;fill-rule:nonzero;fill:#6f6c6a;fill-opacity:1;"/>
        </g>
        <g id="Shape7">
            <desc shapeID="7" type="0" basicInfo-basicType="0" basicInfo-roundedRectRadius="12" basicInfo-polygonSides="6" basicInfo-starPoints="5" bounding="rect(-29.9788,-70.1684,59.9577,140.337)" text="" font-familyName="" font-pixelSize="20" font-bold="0" font-underline="0" font-alignment="1" strokeStyle="0" markerStart="0" markerEnd="0" shadowEnabled="0" shadowOffsetX="0" shadowOffsetY="2" shadowBlur="4" shadowOpacity="160" blurEnabled="0" blurRadius="4" transform="matrix(1,0,0,1,94.9012,156.042)" pers-center="0,0" pers-size="0,0" pers-start="0,0" pers-end="0,0" locked="0" mesh="" flag=""/>
            <path id="shapePath7" d="M64.98,189.98 C67.06,154.42 82.12,121.21 85.8,85.91 C98.82,86 111.86,85.68 124.88,86.08 C117.27,97.06 110.3,108.53 104.72,120.69 C97.65,136.06 91.75,152.14 89.16,168.92 C87.45,179.19 87.8,189.64 87.92,200.01 C87.99,208.87 90.12,217.52 91.63,226.21 C84.58,225.96 77.14,222.94 73.22,216.83 C68.27,208.8 64.4,199.6 64.98,189.98 Z" style="stroke:none;fill-rule:nonzero;fill:#ffffff;fill-opacity:1;"/>
        </g>
        <g id="Shape8">
            <desc shapeID="8" type="0" basicInfo-basicType="0" basicInfo-roundedRectRadius="12" basicInfo-polygonSides="6" basicInfo-starPoints="5" bounding="rect(-45.2257,-68.7806,90.4514,137.561)" text="" font-familyName="" font-pixelSize="20" font-bold="0" font-underline="0" font-alignment="1" strokeStyle="0" markerStart="0" markerEnd="0" shadowEnabled="0" shadowOffsetX="0" shadowOffsetY="2" shadowBlur="4" shadowOpacity="160" blurEnabled="0" blurRadius="4" transform="matrix(1,0,0,1,143.084,154.669)" pers-center="0,0" pers-size="0,0" pers-start="0,0" pers-end="0,0" locked="0" mesh="" flag=""/>
            <path id="shapePath8" d="M104.7,144.63 C111.38,123.79 121.19,103.94 133.68,85.97 L134.29,85.96 C152.3,85.83 170.3,85.92 188.31,85.91 C188.17,89.03 188.09,92.18 187.33,95.22 C184.06,110.67 179.76,125.97 173.31,140.42 C165.19,158.71 156.25,176.91 143.63,192.57 C132.46,205.43 119.21,217.18 103.17,223.45 C100.53,216.26 99.71,208.59 98.24,201.11 C96.95,182.11 98.89,162.81 104.7,144.63 Z" style="stroke:none;fill-rule:nonzero;fill:#ffffff;fill-opacity:1;"/>
        </g>
        <g id="Shape9">
            <desc shapeID="9" type="0" basicInfo-basicType="0" basicInfo-roundedRectRadius="12" basicInfo-polygonSides="6" basicInfo-starPoints="5" bounding="rect(-75.38,-75.5056,150.76,151.011)" text="" font-familyName="" font-pixelSize="20" font-bold="0" font-underline="0" font-alignment="1" strokeStyle="0" markerStart="0" markerEnd="0" shadowEnabled="0" shadowOffsetX="0" shadowOffsetY="2" shadowBlur="4" shadowOpacity="160" blurEnabled="0" blurRadius="4" transform="matrix(1,0,0,1,180.26,161.734)" pers-center="0,0" pers-size="0,0" pers-start="0,0" pers-end="0,0" locked="0" mesh="" flag=""/>
            <path id="shapePath9" d="M197.42,86.24 C216.28,86.33 235.14,86.13 254,86.3 C254.37,90.94 254.65,95.6 255.55,100.18 C255.57,100.32 255.62,100.6 255.64,100.74 C255.51,100.55 255.24,100.17 255.11,99.98 C254.49,93.63 249.8,86.7 242.89,86.57 C236.06,86.59 230.57,91.43 225.79,95.76 C207.05,114.08 193.84,137.73 186.75,162.89 C182.56,177.58 179.34,192.66 178.8,207.97 C174.81,205.08 170.04,202.97 165.02,203.33 C155.08,204 146.08,208.77 137.52,213.48 C126.07,219.57 116.44,228.39 107.09,237.24 C106.35,234.8 105.62,232.37 104.88,229.93 C118.96,224.54 131.9,216.21 142.34,205.31 C154.67,193.54 164.42,179.33 172.48,164.37 C185.38,140.21 196.82,114.05 197.42,86.24 Z" style="stroke:none;fill-rule:nonzero;fill:#ffffff;fill-opacity:1;"/>
        </g>
        <g id="Shape10">
            <desc shapeID="10" type="0" basicInfo-basicType="0" basicInfo-roundedRectRadius="12" basicInfo-polygonSides="6" basicInfo-starPoints="5" bounding="rect(-6.85501,-26.01,13.71,52.02)" text="" font-familyName="" font-pixelSize="20" font-bold="0" font-underline="0" font-alignment="1" strokeStyle="0" markerStart="0" markerEnd="0" shadowEnabled="0" shadowOffsetX="0" shadowOffsetY="2" shadowBlur="4" shadowOpacity="160" blurEnabled="0" blurRadius="4" transform="matrix(1,0,0,1,73.385,112.41)" pers-center="0,0" pers-size="0,0" pers-start="0,0" pers-end="0,0" locked="0" mesh="" flag=""/>
            <path id="shapePath10" d="M71.18,86.4 C74.2,86.43 77.21,86.44 80.24,86.47 C79.79,94.59 77.87,102.54 75.69,110.34 C73.1,119.33 70.64,128.35 67.81,137.27 L66.53,138.42 C66.83,126.84 68.54,115.37 69.35,103.83 C70.01,98.02 70.23,92.17 71.18,86.4 Z" style="stroke:none;fill-rule:nonzero;fill:#ffffff;fill-opacity:1;"/>
        </g>
        <g id="Shape11">
            <desc shapeID="11" type="0" basicInfo-basicType="0" basicInfo-roundedRectRadius="12" basicInfo-polygonSides="6" basicInfo-starPoints="5" bounding="rect(-29.1933,-67.7017,58.3865,135.403)" text="" font-familyName="" font-pixelSize="20" font-bold="0" font-underline="0" font-alignment="1" strokeStyle="0" markerStart="0" markerEnd="0" shadowEnabled="0" shadowOffsetX="0" shadowOffsetY="2" shadowBlur="4" shadowOpacity="160" blurEnabled="0" blurRadius="4" transform="matrix(1,0,0,1,218.108,159.688)" pers-center="0,0" pers-size="0,0" pers-start="0,0" pers-end="0,0" locked="0" mesh="" flag=""/>
            <path id="shapePath11" d="M234,95.84 C236.76,93.9 239.91,91.4 243.5,92.11 C247.31,94.74 246.99,99.91 247.18,104 C248.07,120.61 243.92,136.97 238.78,152.62 C229.25,179.95 214.76,205.7 195.55,227.39 C193.9,224.74 192.28,222.08 190.65,219.43 C190.04,218.06 189.34,216.7 189.11,215.2 C188.21,201.59 190.56,188.06 193.19,174.75 C196.88,157.25 202.35,139.92 211.44,124.42 C217.59,113.94 224.61,103.68 234,95.84 Z" style="stroke:none;fill-rule:nonzero;fill:#ffffff;fill-opacity:1;"/>
        </g>
        <g id="Shape12">
            <desc shapeID="12" type="0" basicInfo-basicType="0" basicInfo-roundedRectRadius="12" basicInfo-polygonSides="6" basicInfo-starPoints="5" bounding="rect(-77.4762,-121.742,154.952,243.485)" text="" font-familyName="" font-pixelSize="20" font-bold="0" font-underline="0" font-alignment="1" strokeStyle="0" markerStart="0" markerEnd="0" shadowEnabled="0" shadowOffsetX="0" shadowOffsetY="2" shadowBlur="4" shadowOpacity="160" blurEnabled="0" blurRadius="4" transform="matrix(1,0,0,1,188.096,237.492)" pers-center="0,0" pers-size="0,0" pers-start="0,0" pers-end="0,0" locked="0" mesh="" flag=""/>
            <path id="shapePath12" d="M227.46,195.39 C242.59,171.31 254.18,144.26 256.96,115.75 C256.98,118.24 257.05,120.73 257.32,123.21 C259.91,148.43 261.25,173.76 263.16,199.03 C263.03,205.72 264.63,212.29 264.42,218.98 C264.32,226.01 265.47,232.98 265.36,240.01 C265.33,252.99 265.95,265.99 265.2,278.97 C264.63,281.28 264.41,283.65 264.14,286.02 C261.63,297.42 258.17,308.87 251.49,318.58 C246.63,324.57 242.15,331.07 235.82,335.65 C230.31,339.63 225.08,344.14 218.75,346.84 C185.78,362.48 146.49,363.08 112.57,349.99 C115.47,347.1 118.48,344.13 120.17,340.32 C122.97,334.27 123.25,327.5 123.49,320.94 C123.68,296.43 116.81,272.68 110.62,249.19 C116.1,243.81 121.84,238.68 127.96,234.04 C137.84,226.43 148.89,220.57 160,215.01 C162.61,213.69 165.41,212.82 168.19,211.9 C160.41,221.08 157.98,233.39 157.13,245.07 C156.57,249.71 161.67,253.27 165.97,252.27 C173.82,250.95 180.48,246.12 186.95,241.77 C192.95,250.67 200.16,259.8 210.61,263.52 C219.83,266.66 230.26,263.97 237.55,257.73 C241.25,254.63 245.37,251.87 248.05,247.77 C241.89,249.81 237.38,254.74 231.59,257.5 C225.8,260.54 218.39,261.75 212.4,258.59 C207.04,255.35 203.53,249.94 200.14,244.84 C198.3,241.78 196.12,238.82 195,235.4 C206.92,223.02 218.35,210.04 227.46,195.39 Z" style="stroke:none;fill-rule:nonzero;fill:#ffffff;fill-opacity:1;"/>
        </g>
        <g id="Shape13">
            <desc shapeID="13" type="0" basicInfo-basicType="0" basicInfo-roundedRectRadius="12" basicInfo-polygonSides="6" basicInfo-starPoints="5" bounding="rect(-3.68085,-29.895,7.36168,59.79)" text="" font-familyName="" font-pixelSize="20" font-bold="0" font-underline="0" font-alignment="1" strokeStyle="0" markerStart="0" markerEnd="0" shadowEnabled="0" shadowOffsetX="0" shadowOffsetY="2" shadowBlur="4" shadowOpacity="160" blurEnabled="0" blurRadius="4" transform="matrix(1,0,0,1,60.558,179.525)" pers-center="0,0" pers-size="0,0" pers-start="0,0" pers-end="0,0" locked="0" mesh="" flag=""/>
            <path id="shapePath13" d="M64.16,149.63 C64.24,153.42 64.35,157.22 63.97,161 C62.43,177.12 62.2,193.35 60.22,209.42 C58.07,203.88 56.68,198.01 56.9,192.04 C57.17,177.64 60.36,163.46 64.16,149.63 Z" style="stroke:none;fill-rule:nonzero;fill:#5f0303;fill-opacity:1;"/>
        </g>
        <g id="Shape14">
            <desc shapeID="14" type="0" basicInfo-basicType="0" basicInfo-roundedRectRadius="12" basicInfo-polygonSides="6" basicInfo-starPoints="5" bounding="rect(-19.2049,-46.65,38.4099,93.3)" text="" font-familyName="" font-pixelSize="20" font-bold="0" font-underline="0" font-alignment="1" strokeStyle="0" markerStart="0" markerEnd="0" shadowEnabled="0" shadowOffsetX="0" shadowOffsetY="2" shadowBlur="4" shadowOpacity="160" blurEnabled="0" blurRadius="4" transform="matrix(1,0,0,1,77.9951,256.38)" pers-center="0,0" pers-size="0,0" pers-start="0,0" pers-end="0,0" locked="0" mesh="" flag=""/>
            <path id="shapePath14" d="M60.3,209.73 C63.15,214.95 65.96,220.42 70.56,224.34 C76.85,229.77 85.21,232.41 93.45,232.48 C94.59,237.44 96.48,242.25 97.2,247.3 C95.95,249.59 94.06,251.42 92.47,253.45 C80.38,268.13 70.35,284.79 64.7,303.03 C61.5,292.99 58.91,282.61 58.89,272.01 C58.39,251.24 59.91,230.48 60.3,209.73 Z" style="stroke:none;fill-rule:nonzero;fill:#ffffff;fill-opacity:1;"/>
        </g>
        <g id="Shape15">
            <desc shapeID="15" type="0" basicInfo-basicType="0" basicInfo-roundedRectRadius="12" basicInfo-polygonSides="6" basicInfo-starPoints="5" bounding="rect(-11.8301,-17.8927,23.6603,35.7853)" text="" font-familyName="" font-pixelSize="20" font-bold="0" font-underline="0" font-alignment="1" strokeStyle="0" markerStart="0" markerEnd="0" shadowEnabled="0" shadowOffsetX="0" shadowOffsetY="2" shadowBlur="4" shadowOpacity="160" blurEnabled="0" blurRadius="4" transform="matrix(1,0,0,1,172.78,230.623)" pers-center="0,0" pers-size="0,0" pers-start="0,0" pers-end="0,0" locked="0" mesh="" flag=""/>
            <path id="shapePath15" d="M162.37,234.16 C163.81,226.4 166.07,218.28 172.07,212.73 C174.45,214.07 176.76,215.56 178.96,217.19 C179.95,224.22 182.06,231.02 184.61,237.63 C179.34,242.04 173.62,246.3 166.9,248.18 C164.89,248.82 162.19,248.68 161.13,246.55 C160.48,242.38 161.75,238.26 162.37,234.16 Z" style="stroke:none;fill-rule:nonzero;fill:#ffffff;fill-opacity:1;"/>
        </g>
        <g id="Shape16">
            <desc shapeID="16" type="0" basicInfo-basicType="0" basicInfo-roundedRectRadius="12" basicInfo-polygonSides="6" basicInfo-starPoints="5" bounding="rect(-22.7933,-44.97,45.5866,89.94)" text="" font-familyName="" font-pixelSize="20" font-bold="0" font-underline="0" font-alignment="1" strokeStyle="0" markerStart="0" markerEnd="0" shadowEnabled="0" shadowOffsetX="0" shadowOffsetY="2" shadowBlur="4" shadowOpacity="160" blurEnabled="0" blurRadius="4" transform="matrix(1,0,0,1,89.5233,304.15)" pers-center="0,0" pers-size="0,0" pers-start="0,0" pers-end="0,0" locked="0" mesh="" flag=""/>
            <path id="shapePath16" d="M70.02,311.87 C75.85,292.16 86.74,274.23 100.64,259.18 C106,278.77 110.17,298.73 111.94,318.99 C112.18,324.66 112.71,330.39 111.82,336.04 C110.95,340.06 107.95,343.07 105.34,346.07 C107.1,347.05 108.85,348.08 110.59,349.12 C96.57,343.01 84.03,333.29 74.86,321.03 C71.72,316.94 69.81,312.1 66.73,307.98 C67.82,309.28 68.91,310.57 70.02,311.87 Z" style="stroke:none;fill-rule:nonzero;fill:#ffffff;fill-opacity:1;"/>
        </g>
        <g id="Shape17">
            <desc shapeID="17" type="0" basicInfo-basicType="0" basicInfo-roundedRectRadius="12" basicInfo-polygonSides="6" basicInfo-starPoints="5" bounding="rect(-106.945,-163.57,213.89,327.14)" text="" font-familyName="" font-pixelSize="20" font-bold="0" font-underline="0" font-alignment="1" strokeStyle="0" markerStart="0" markerEnd="0" shadowEnabled="0" shadowOffsetX="0" shadowOffsetY="2" shadowBlur="4" shadowOpacity="160" blurEnabled="0" blurRadius="4" transform="matrix(1,0,0,0.663753,162.285,501.75)" pers-center="0,0" pers-size="0,0" pers-start="0,0" pers-end="0,0" locked="0" mesh="" flag=""/>
            <path id="shapePath17" d="M138.61,393.18 C154.11,394.673 169.89,394.481 185.42,393.306 C182.26,396.233 178.35,398.815 175.74,402.001 C173.73,405.048 172.76,408.387 172.59,411.705 C172.61,471.217 172.57,530.723 172.61,590.235 C172.4,591.25 173.47,592.02 174.35,592.764 C179.65,597.324 187.4,600.231 194.95,602.873 C197.63,603.636 200.31,604.432 203.13,604.97 C224.79,607.831 247,606.178 268.87,607.466 C268.99,608.329 269.11,609.192 269.23,610.068 C197.94,610.486 126.64,610.24 55.34,610.313 C55.56,609.338 55.78,608.369 55.99,607.399 C61.67,607.346 67.34,607.147 73.01,606.961 C89.08,606.736 105.33,607.094 121.17,604.964 C123.43,604.446 125.75,604.008 127.92,603.331 C132.99,601.452 138.43,599.926 142.9,597.41 C146.23,595.731 148.65,593.447 151.55,591.483 C151.67,553.443 151.56,515.403 151.6,477.364 C151.49,454.219 151.83,431.067 151.42,407.922 L150.68,408.055 C150.23,402.174 144.21,397.395 138.61,393.18 Z" style="stroke:none;fill-rule:nonzero;fill:#030303;fill-opacity:1;"/>
        </g>
    </g>
</svg>
