<?xml version="1.0" encoding="UTF-8" ?>
<!DOCTYPE svg PUBLIC "-//W3C//DTD SVG 1.1//EN" "http://www.w3.org/Graphics/SVG/1.1/DTD/svg11.dtd">
<svg width="755pt" height="755pt" viewBox="0 0 755 755" version="1.1" xmlns="http://www.w3.org/2000/svg">
<path fill="#ffffff" d=" M 0.00 0.00 L 755.00 0.00 L 755.00 755.00 L 0.00 755.00 L 0.00 0.00 Z" />
<path fill="#6b0c0c" d=" M 227.79 35.21 C 229.12 34.81 230.44 34.26 231.83 34.09 C 243.69 33.54 255.78 33.44 267.30 36.70 C 274.84 38.83 281.60 44.17 284.69 51.46 C 288.61 60.81 289.97 70.97 290.83 81.00 C 290.86 82.63 290.86 84.27 290.80 85.91 C 287.12 121.21 272.06 154.42 269.98 189.98 C 269.40 199.60 273.27 208.80 278.22 216.83 C 282.14 222.94 289.58 225.96 296.63 226.21 C 295.12 217.52 292.99 208.87 292.92 200.01 C 292.80 189.64 292.45 179.19 294.16 168.92 C 296.75 152.14 302.65 136.06 309.72 120.69 C 315.30 108.53 322.27 97.06 329.88 86.08 C 331.18 84.35 332.55 82.67 333.93 81.00 C 343.07 69.92 355.59 60.86 370.06 58.71 C 379.47 56.87 390.35 59.95 396.16 67.90 C 398.92 71.81 400.78 76.33 401.77 81.00 C 402.04 82.74 402.26 84.49 402.42 86.24 C 401.82 114.05 390.38 140.21 377.48 164.37 C 369.42 179.33 359.67 193.54 347.34 205.31 C 336.90 216.21 323.96 224.54 309.88 229.93 C 310.62 232.37 311.35 234.80 312.09 237.24 C 321.44 228.39 331.07 219.57 342.52 213.48 C 351.08 208.77 360.08 204.00 370.02 203.33 C 375.04 202.97 379.81 205.08 383.80 207.97 C 384.34 192.66 387.56 177.58 391.75 162.89 C 398.84 137.73 412.05 114.08 430.79 95.76 C 435.57 91.43 441.06 86.59 447.89 86.57 C 454.80 86.70 459.49 93.63 460.11 99.98 C 460.24 100.17 460.51 100.55 460.64 100.74 C 461.43 105.70 461.99 110.72 461.96 115.75 C 459.18 144.26 447.59 171.31 432.46 195.39 C 423.35 210.04 411.92 223.02 400.00 235.40 C 401.12 238.82 403.30 241.78 405.14 244.84 C 408.53 249.94 412.04 255.35 417.40 258.59 C 423.39 261.75 430.80 260.54 436.59 257.50 C 442.38 254.74 446.89 249.81 453.05 247.77 C 450.37 251.87 446.25 254.63 442.55 257.73 C 435.26 263.97 424.83 266.66 415.61 263.52 C 405.16 259.80 397.95 250.67 391.95 241.77 C 385.48 246.12 378.82 250.95 370.97 252.27 C 366.67 253.27 361.57 249.71 362.13 245.07 C 362.98 233.39 365.41 221.08 373.19 211.90 C 370.41 212.82 367.61 213.69 365.00 215.01 C 353.89 220.57 342.84 226.43 332.96 234.04 C 326.84 238.68 321.10 243.81 315.62 249.19 C 321.81 272.68 328.68 296.43 328.49 320.94 C 328.25 327.50 327.97 334.27 325.17 340.32 C 323.48 344.13 320.47 347.10 317.57 349.99 C 316.90 349.71 316.24 349.42 315.59 349.12 C 313.85 348.08 312.10 347.05 310.34 346.07 C 312.95 343.07 315.95 340.06 316.82 336.04 C 317.71 330.39 317.18 324.66 316.94 318.99 C 315.17 298.73 311.00 278.77 305.64 259.18 C 291.74 274.23 280.85 292.16 275.02 311.87 C 273.91 310.57 272.82 309.28 271.73 307.98 C 270.94 307.00 270.14 306.02 269.35 305.05 C 269.44 304.54 269.62 303.53 269.70 303.03 C 275.35 284.79 285.38 268.13 297.47 253.45 C 299.06 251.42 300.95 249.59 302.20 247.30 C 301.48 242.25 299.59 237.44 298.45 232.48 C 290.21 232.41 281.85 229.77 275.56 224.34 C 270.96 220.42 268.15 214.95 265.30 209.73 L 265.22 209.42 C 267.20 193.35 267.43 177.12 268.97 161.00 C 269.35 157.22 269.24 153.42 269.16 149.63 C 269.22 149.34 269.33 148.75 269.39 148.46 C 270.67 144.77 271.93 141.07 272.81 137.27 C 275.64 128.35 278.10 119.33 280.69 110.34 C 282.87 102.54 284.79 94.59 285.24 86.47 C 285.25 86.29 285.27 85.92 285.28 85.73 C 285.38 84.15 285.45 82.58 285.50 81.00 C 285.42 71.99 284.52 62.86 281.54 54.31 C 279.04 47.32 273.08 42.00 266.09 39.71 C 254.62 35.26 242.19 35.87 230.12 35.95 C 230.05 36.62 229.91 37.96 229.84 38.63 C 228.77 37.74 228.16 36.53 227.79 35.21 Z" />
<path fill="#ffffff" d=" M 368.99 64.87 C 375.35 62.97 382.73 63.80 387.89 68.19 C 391.47 71.43 392.54 76.40 393.36 80.95 C 376.59 81.05 359.83 81.00 343.06 80.97 C 350.16 73.53 358.86 67.31 368.99 64.87 Z" />
<path fill="#030303" d=" M 270.53 81.86 C 275.40 80.51 280.51 81.14 285.50 81.00 C 285.45 82.58 285.38 84.15 285.28 85.73 C 282.10 85.76 278.92 85.77 275.74 85.78 C 273.98 95.10 273.91 104.63 272.43 113.99 C 271.51 125.49 270.25 136.96 269.39 148.46 C 269.33 148.75 269.22 149.34 269.16 149.63 C 265.36 163.46 262.17 177.64 261.90 192.04 C 261.68 198.01 263.07 203.88 265.22 209.42 L 265.30 209.73 C 264.91 230.48 263.39 251.24 263.89 272.01 C 263.91 282.61 266.50 292.99 269.70 303.03 C 269.62 303.53 269.44 304.54 269.35 305.05 C 270.14 306.02 270.94 307.00 271.73 307.98 C 274.81 312.10 276.72 316.94 279.86 321.03 C 289.03 333.29 301.57 343.01 315.59 349.12 C 316.24 349.42 316.90 349.71 317.57 349.99 C 351.49 363.08 390.78 362.48 423.75 346.84 C 430.08 344.14 435.31 339.63 440.82 335.65 C 447.15 331.07 451.63 324.57 456.49 318.58 C 463.17 308.87 466.63 297.42 469.14 286.02 C 469.41 283.65 469.63 281.28 470.20 278.97 C 470.95 265.99 470.33 252.99 470.36 240.01 C 470.47 232.98 469.32 226.01 469.42 218.98 C 469.63 212.29 468.03 205.72 468.16 199.03 C 466.25 173.76 464.91 148.43 462.32 123.21 C 462.05 120.73 461.98 118.24 461.96 115.75 C 461.99 110.72 461.43 105.70 460.64 100.74 C 460.62 100.60 460.57 100.32 460.55 100.18 C 459.65 95.60 459.37 90.94 459.00 86.30 C 440.14 86.13 421.28 86.33 402.42 86.24 C 402.26 84.49 402.04 82.74 401.77 81.00 C 422.53 81.00 443.29 81.00 464.05 81.00 C 465.99 96.72 467.23 112.52 468.95 128.26 C 469.81 135.50 470.56 142.77 470.83 150.07 C 471.90 153.30 471.60 156.73 471.84 160.07 C 473.08 171.71 473.51 183.43 474.35 195.10 C 475.35 203.38 474.80 211.75 475.57 220.05 C 476.16 226.00 475.91 231.97 476.03 237.94 C 476.05 254.30 476.40 270.68 475.87 287.04 C 474.98 295.42 473.81 303.90 470.91 311.86 C 466.59 325.37 461.17 338.91 452.09 350.00 C 444.03 360.98 433.34 369.99 421.47 376.61 C 415.92 379.80 409.81 381.76 403.98 384.33 C 394.39 387.83 384.11 389.22 373.93 389.10 C 358.92 389.16 343.22 389.90 329.13 383.85 C 308.72 377.31 290.82 363.69 278.75 346.01 C 275.90 341.31 273.15 336.54 270.62 331.66 C 265.16 320.50 262.27 308.32 259.87 296.19 C 256.83 279.68 258.28 262.74 258.16 246.04 C 258.45 236.07 257.87 226.01 259.18 216.11 C 259.56 200.75 261.29 185.47 262.15 170.12 C 264.11 141.42 266.70 112.77 269.75 84.17 C 269.82 83.33 270.08 82.56 270.53 81.86 Z" />
<path fill="#030303" d=" M 290.83 81.00 C 305.20 81.01 319.56 81.00 333.93 81.00 C 332.55 82.67 331.18 84.35 329.88 86.08 C 316.86 85.68 303.82 86.00 290.80 85.91 C 290.86 84.27 290.86 82.63 290.83 81.00 Z" />
<path fill="#030303" d=" M 343.06 80.97 C 359.83 81.00 376.59 81.05 393.36 80.95 C 393.33 82.60 393.33 84.26 393.31 85.91 C 375.30 85.92 357.30 85.83 339.29 85.96 C 340.53 84.28 341.79 82.62 343.06 80.97 Z" />
<path fill="#6f6c6a" d=" M 275.74 85.78 C 278.92 85.77 282.10 85.76 285.28 85.73 C 285.27 85.92 285.25 86.29 285.24 86.47 C 282.21 86.44 279.20 86.43 276.18 86.40 C 275.23 92.17 275.01 98.02 274.35 103.83 C 273.54 115.37 271.83 126.84 271.53 138.42 L 272.81 137.27 C 271.93 141.07 270.67 144.77 269.39 148.46 C 270.25 136.96 271.51 125.49 272.43 113.99 C 273.91 104.63 273.98 95.10 275.74 85.78 Z" />
<path fill="#ffffff" d=" M 269.98 189.98 C 272.06 154.42 287.12 121.21 290.80 85.91 C 303.82 86.00 316.86 85.68 329.88 86.08 C 322.27 97.06 315.30 108.53 309.72 120.69 C 302.65 136.06 296.75 152.14 294.16 168.92 C 292.45 179.19 292.80 189.64 292.92 200.01 C 292.99 208.87 295.12 217.52 296.63 226.21 C 289.58 225.96 282.14 222.94 278.22 216.83 C 273.27 208.80 269.40 199.60 269.98 189.98 Z" />
<path fill="#ffffff" d=" M 309.70 144.63 C 316.38 123.79 326.19 103.94 338.68 85.97 L 339.29 85.96 C 357.30 85.83 375.30 85.92 393.31 85.91 C 393.17 89.03 393.09 92.18 392.33 95.22 C 389.06 110.67 384.76 125.97 378.31 140.42 C 370.19 158.71 361.25 176.91 348.63 192.57 C 337.46 205.43 324.21 217.18 308.17 223.45 C 305.53 216.26 304.71 208.59 303.24 201.11 C 301.95 182.11 303.89 162.81 309.70 144.63 Z" />
<path fill="#ffffff" d=" M 402.42 86.24 C 421.28 86.33 440.14 86.13 459.00 86.30 C 459.37 90.94 459.65 95.60 460.55 100.18 C 460.57 100.32 460.62 100.60 460.64 100.74 C 460.51 100.55 460.24 100.17 460.11 99.98 C 459.49 93.63 454.80 86.70 447.89 86.57 C 441.06 86.59 435.57 91.43 430.79 95.76 C 412.05 114.08 398.84 137.73 391.75 162.89 C 387.56 177.58 384.34 192.66 383.80 207.97 C 379.81 205.08 375.04 202.97 370.02 203.33 C 360.08 204.00 351.08 208.77 342.52 213.48 C 331.07 219.57 321.44 228.39 312.09 237.24 C 311.35 234.80 310.62 232.37 309.88 229.93 C 323.96 224.54 336.90 216.21 347.34 205.31 C 359.67 193.54 369.42 179.33 377.48 164.37 C 390.38 140.21 401.82 114.05 402.42 86.24 Z" />
<path fill="#ffffff" d=" M 276.18 86.40 C 279.20 86.43 282.21 86.44 285.24 86.47 C 284.79 94.59 282.87 102.54 280.69 110.34 C 278.10 119.33 275.64 128.35 272.81 137.27 L 271.53 138.42 C 271.83 126.84 273.54 115.37 274.35 103.83 C 275.01 98.02 275.23 92.17 276.18 86.40 Z" />
<path fill="#ffffff" d=" M 439.00 95.84 C 441.76 93.90 444.91 91.40 448.50 92.11 C 452.31 94.74 451.99 99.91 452.18 104.00 C 453.07 120.61 448.92 136.97 443.78 152.62 C 434.25 179.95 419.76 205.70 400.55 227.39 C 398.90 224.74 397.28 222.08 395.65 219.43 C 395.04 218.06 394.34 216.70 394.11 215.20 C 393.21 201.59 395.56 188.06 398.19 174.75 C 401.88 157.25 407.35 139.92 416.44 124.42 C 422.59 113.94 429.61 103.68 439.00 95.84 Z" />
<path fill="#ffffff" d=" M 432.46 195.39 C 447.59 171.31 459.18 144.26 461.96 115.75 C 461.98 118.24 462.05 120.73 462.32 123.21 C 464.91 148.43 466.25 173.76 468.16 199.03 C 468.03 205.72 469.63 212.29 469.42 218.98 C 469.32 226.01 470.47 232.98 470.36 240.01 C 470.33 252.99 470.95 265.99 470.20 278.97 C 469.63 281.28 469.41 283.65 469.14 286.02 C 466.63 297.42 463.17 308.87 456.49 318.58 C 451.63 324.57 447.15 331.07 440.82 335.65 C 435.31 339.63 430.08 344.14 423.75 346.84 C 390.78 362.48 351.49 363.08 317.57 349.99 C 320.47 347.10 323.48 344.13 325.17 340.32 C 327.97 334.27 328.25 327.50 328.49 320.94 C 328.68 296.43 321.81 272.68 315.62 249.19 C 321.10 243.81 326.84 238.68 332.96 234.04 C 342.84 226.43 353.89 220.57 365.00 215.01 C 367.61 213.69 370.41 212.82 373.19 211.90 C 365.41 221.08 362.98 233.39 362.13 245.07 C 361.57 249.71 366.67 253.27 370.97 252.27 C 378.82 250.95 385.48 246.12 391.95 241.77 C 397.95 250.67 405.16 259.80 415.61 263.52 C 424.83 266.66 435.26 263.97 442.55 257.73 C 446.25 254.63 450.37 251.87 453.05 247.77 C 446.89 249.81 442.38 254.74 436.59 257.50 C 430.80 260.54 423.39 261.75 417.40 258.59 C 412.04 255.35 408.53 249.94 405.14 244.84 C 403.30 241.78 401.12 238.82 400.00 235.40 C 411.92 223.02 423.35 210.04 432.46 195.39 Z" />
<path fill="#5f0303" d=" M 269.16 149.63 C 269.24 153.42 269.35 157.22 268.97 161.00 C 267.43 177.12 267.20 193.35 265.22 209.42 C 263.07 203.88 261.68 198.01 261.90 192.04 C 262.17 177.64 265.36 163.46 269.16 149.63 Z" />
<path fill="#ffffff" d=" M 265.30 209.73 C 268.15 214.95 270.96 220.42 275.56 224.34 C 281.85 229.77 290.21 232.41 298.45 232.48 C 299.59 237.44 301.48 242.25 302.20 247.30 C 300.95 249.59 299.06 251.42 297.47 253.45 C 285.38 268.13 275.35 284.79 269.70 303.03 C 266.50 292.99 263.91 282.61 263.89 272.01 C 263.39 251.24 264.91 230.48 265.30 209.73 Z" />
<path fill="#ffffff" d=" M 367.37 234.16 C 368.81 226.40 371.07 218.28 377.07 212.73 C 379.45 214.07 381.76 215.56 383.96 217.19 C 384.95 224.22 387.06 231.02 389.61 237.63 C 384.34 242.04 378.62 246.30 371.90 248.18 C 369.89 248.82 367.19 248.68 366.13 246.55 C 365.48 242.38 366.75 238.26 367.37 234.16 Z" />
<path fill="#ffffff" d=" M 275.02 311.87 C 280.85 292.16 291.74 274.23 305.64 259.18 C 311.00 278.77 315.17 298.73 316.94 318.99 C 317.18 324.66 317.71 330.39 316.82 336.04 C 315.95 340.06 312.95 343.07 310.34 346.07 C 312.10 347.05 313.85 348.08 315.59 349.12 C 301.57 343.01 289.03 333.29 279.86 321.03 C 276.72 316.94 274.81 312.10 271.73 307.98 C 272.82 309.28 273.91 310.57 275.02 311.87 Z" />
<path fill="#030303" d=" M 343.61 393.18 C 359.11 395.43 374.89 395.14 390.42 393.37 C 387.26 397.78 383.35 401.67 380.74 406.47 C 378.73 411.06 377.76 416.09 377.59 421.09 C 377.61 510.75 377.57 600.40 377.61 690.06 C 377.40 691.59 378.47 692.75 379.35 693.87 C 384.65 700.74 392.40 705.12 399.95 709.10 C 402.63 710.25 405.31 711.45 408.13 712.26 C 429.79 716.57 452.00 714.08 473.87 716.02 C 473.99 717.32 474.11 718.62 474.23 719.94 C 402.94 720.57 331.64 720.20 260.34 720.31 C 260.56 718.84 260.78 717.38 260.99 715.92 C 266.67 715.84 272.34 715.54 278.01 715.26 C 294.08 714.92 310.33 715.46 326.17 712.25 C 328.43 711.47 330.75 710.81 332.92 709.79 C 337.99 706.96 343.43 704.66 347.90 700.87 C 351.23 698.34 353.65 694.90 356.55 691.94 C 356.67 634.63 356.56 577.32 356.60 520.01 C 356.49 485.14 356.83 450.26 356.42 415.39 L 355.68 415.59 C 355.23 406.73 349.21 399.53 343.61 393.18 Z" />
</svg>
